# xmcd
#
# Track frame offsets: 
#        150
#        15700
#        32953
#        52023
#        68651
#        85413
#        101888
#        119612
#        136498
#        151687
#        168207
#        184603
#
# Disc length: 2704 seconds
#
# Revision: 0
# Processed by: cddbd v1.5.2PL0 Copyright (c) Steve Scherf et al.
# Submitted via: ExactAudioCopy v1.0b1
#
DISCID=9f0a8e0c
DTITLE=Phil Naro - Glass Mountain
DYEAR=2002
DGENRE=Hard Rock
TTITLE0=Hot For You
TTITLE1=Love Is A Game
TTITLE2=Glass Mountain
TTITLE3=Heartbreak In The Night
TTITLE4=Donna
TTITLE5=Bad Boys (In The Hard Luck City)
TTITLE6=Spiritual Revolution
TTITLE7=Find My Way Back To You
TTITLE8=You and Me
TTITLE9=Make My Money
TTITLE10=Under The Night Sun
TTITLE11=Stick Around
EXTD=
EXTT0=
EXTT1=
EXTT2=
EXTT3=
EXTT4=
EXTT5=
EXTT6=
EXTT7=
EXTT8=
EXTT9=
EXTT10=
EXTT11=
PLAYORDER=
